<svg id="Layer_1" data-name="Layer 1" xmlns="http://www.w3.org/2000/svg" viewBox="0 0 1632.41 1111.4">
  <title>geobarlogo(svg)</title>
  <g>
    <path d="M856.55,26.46c-11.2,14.5-39.3,50.7-62.3,80.4s-46.4,59.8-51.9,67-10.4,13.6-11.1,14.3c-.9,1-4.6,0-18.6-5.1-9.6-3.6-21.1-7.8-25.7-9.5l-8.3-3-42,56.1c-23.1,30.9-42.3,56.3-42.7,56.5s-10.4-11.5-22.1-25.8-21.7-26-22.3-26-9.2,5.5-19.1,12.3c-22.7,15.4-75.8,51.1-77.4,52.1-.7.4-4.5-3.5-10-10.1-49.6-60.9-89.8-103.5-103.8-110.3-5.3-2.6-6.9-2-15,5-15.2,13.2-80.4,79.5-131.1,133.5-31.8,33.8-73.7,79-119.4,128.5-64.1,69.4-74,80.3-73.7,80.5.1.1,66.8-.2,148.2-.7,92.7-.5,397.6-.4,815.8.3,367.3.6,668.1.9,668.4.6s-20.2-22.3-45.4-48.9c-60.6-63.7-133.9-141-185.8-195.6-23-24.3-42.2-44.2-42.6-44.2s-12.6,12.4-27,27.5-26.7,27.5-27.3,27.4-7.7-7.6-15.7-16.7c-52.5-60-89.2-101.2-90-101.2-.6,0-24.4,14.6-52.8,32.5s-52,32.5-52.3,32.5-16.9-17.9-36.9-39.8-45.8-50.1-57.4-62.7C915.45,42.36,882,5.66,879.65,3.06L877.05,0Zm56.2,48.9c25.9,32.7,62.1,78.4,98,123.5,8,10,26.4,33.3,41,51.6,39.7,50.1,63.9,80.5,78.5,98.9,36.6,45.9,56.5,71.3,56.2,71.6s-29.1-16.5-64.3-37.2-64.4-37.7-65-37.8-17,15.6-36.6,34.7-35.9,35-36.2,35c-.5.2-15.3-21-37-52.8-4.9-7.2-9-13.1-9.1-13.3-.3-.4-79.2,6-104.2,8.4-9,.8-17.5,1.4-19,1.2-3.1-.3.9-3.8,59-51.3,22.5-18.4,25.6-21.3,25.4-23.5s-12.9-51.9-29.4-116c-3-11.8-5.8-21.9-6.2-22.3s-7.9-1.3-16.7-1.9-16.1-1.2-16.4-1.5,4.9-11.1,11.5-24.1,18.5-36.4,26.3-52,14.8-28,15.2-27.6S897.25,55.86,912.75,75.36Zm-571.1,144.2c2,14.6,10.2,76,11.3,85.1l1.1,8.7,22.4,14.8c12.2,8.1,28.5,18.7,36,23.7s28.2,18.4,45.8,30,33.7,22.1,35.8,23.4,3.7,2.6,3.7,3.1-2.6,3.1-5.7,6-13.9,12.9-23.8,22.3-19.2,18.2-20.6,19.5l-2.7,2.4-32.8-22.8c-18.1-12.5-33.8-22.8-34.9-22.8s-21.8,5.4-46,11.8c-70.5,18.8-77.7,20.7-78.6,20.4-.4-.2,1.4-3.2,4-6.8,21.4-29.2,59.1-82.1,59.1-82.8s-.7-1.3-1.6-1.6c-3-1.1-33.4-19.1-33.4-19.7,0-.3,5.2-11.4,11.6-24.5,35.3-73,47.7-98.4,47.9-98.4S341.05,215.06,341.65,219.56Zm372.3,33c17.2,21.6,32.8,41.2,34.6,43.5l3.4,4.3h-2.9c-1.5,0-5.7-.5-9.2-1s-16.2-2.4-28.3-3.9-22.3-3.4-22.7-3.9-1.9-5.7-3.6-11.5l-2.9-10.5-8.9-3.9c-4.9-2.1-9.1-4.3-9.3-4.9-.5-1.1,17.3-47.4,18.2-47.4C682.55,213.36,696.85,231.06,714,252.56Zm498.4-16.5c5.9,8.7,19.5,28.5,30.1,44s19.3,28.7,19.3,29.2c0,1.2-45.7,63.5-46.9,63.9-.9.3-.6,1-16.3-35.3-23.5-54.4-29.8-69.2-29.8-70.1,0-.5,5.5-4.5,12.1-8.8s12.4-8.7,12.8-9.5,2.1-7.8,3.7-15.3,3.2-13.8,3.6-13.8S1206.45,227.46,1212.35,236.06Zm-672.2,32c.3,1,1.7,7.6,3.1,14.8s2.8,13.7,3.1,14.6,7.6,7.6,16.4,15c14.2,11.8,16,13.7,16,16.4,0,5.2-3.1,43.9-3.5,44.3-.6.6-.1.9-45.2-34.1-20.5-15.8-37.3-29.4-37.2-30,0-1.2,44.8-42.6,46.1-42.7C539.35,266.36,539.85,267.16,540.15,268.06Zm859.6,49.8c31.7,44.3,108,150.6,109.3,152.3.5.7.7,1.5.5,1.8s-14-4.1-30.4-9.6-37.1-12.6-45.9-15.5l-16-5.3-50.7-1.9c-27.8-1-51-2.1-51.4-2.6-.8-.8,1.3-11.2,9-43.7l5.3-22.5,4.4.3c2.4.1,17.6,1.8,33.7,3.8s29.5,3.4,29.8,3.1-2.5-11.9-6.1-25.8c-6.1-23.4-16.9-64.7-18.2-69.4-.5-1.8-.3-1.8.9-.5C1374.75,283.16,1386.35,299.16,1399.75,317.86Z" transform="translate(-0.05 0.04)"/>
    <path d="M261.25,599.26c-20.6,3.4-37.1,12.4-49.1,27-9.7,11.7-15.1,23.8-17.9,39.8-2.2,12.7-2.2,199.9,0,212.6,4.9,27.9,20,48.4,44,59.8,12.4,5.9,20.5,7.4,38,7.3,13.3-.1,16-.4,24-2.8,12.2-3.7,21.2-8.8,30-16.9,11.8-10.8,19-23,23.6-39.9,2.2-8,2.3-10.1,2.7-56.1l.3-47.7-3-3-2.9-3H285l-2.6,3.1-2.6,3.1v40l2.9,2.9c2.6,2.5,3.7,2.9,8.6,2.9,11,0,12,2.1,12,26,0,16.6-.1,17.8-2.5,22.5-5.7,11.6-15.3,17.2-28,16.3-12.2-.9-22.1-8.7-25.5-20.1-2.2-7.6-2.2-193.8,0-201.4,5.9-19.9,32.6-27.2,46.9-12.9,7.4,7.4,8.9,12,9.3,28.6.6,23.3.3,23,26.8,23,27.4,0,27.1.3,26.2-26.3-.4-13.1-1-19.2-2.7-25.5-4.4-16.6-11.6-29-23.5-39.9-14.1-13-30-19.2-51.5-19.8A142.9,142.9,0,0,0,261.25,599.26Z" transform="translate(-0.05 0.04)"/>
    <path d="M692.55,599.36c-25.2,4.6-45.3,19.8-56.3,42.5-8.5,17.6-7.9,7.6-8.2,128.5-.3,94.5-.2,108.4,1.2,115.3,5.6,27.7,26.5,49.7,55.2,57.9,10.2,3,31.3,3.2,41.3.5,21.3-5.9,40.5-21.7,50-41.2,7.9-16.2,7.5-8.7,7.5-130.5V663.86L781,656c-7.7-26.8-29-48.1-54.7-55.1C719.25,599.06,699.35,598.06,692.55,599.36Zm25.3,55.3c6.7,3.4,10.2,7.4,11.9,13.6,1.5,5.4,1.4,204.7-.1,209.2-3.1,9.2-10.4,14.7-20.6,15.6-13.3,1.1-24.2-4.6-27.1-14.3-1.6-5.6-1.7-204.9-.1-210.8,1.4-5.1,9.2-13.2,14.4-15.1A26.5,26.5,0,0,1,717.85,654.66Z" transform="translate(-0.05 0.04)"/>
    <path d="M427.15,605.86a11.66,11.66,0,0,0-3.3,4.2c-.8,2.1-1.1,44.2-.9,164.1l.3,161.4,2.8,2.4,2.8,2.4H563l2.9-2.9,2.9-2.9V915c0-20.4-.5-23.5-4.4-25.5-1.3-.6-14.9-1.1-37.6-1.3-53-.5-50.9,1.3-50.9-44.8,0-29.8.4-33.6,4.6-38.2,4.7-5.2,5.2-5.3,44.8-5.8s40.1-.6,42.4-5.7c.7-1.5,1.1-10.1,1.1-21.8,0-19,0-19.4-2.4-22.2l-2.4-2.8-36.9-.5c-31.5-.5-37.3-.8-40.4-2.3a19.12,19.12,0,0,1-9.9-11.5c-1.5-5.4-1.3-57.4.2-62.5,1.6-5.3,6.4-10.2,11.3-11.6,2.6-.7,16.2-1.1,37.8-1.1,36.9,0,39.2-.3,41.6-5.6.7-1.6,1.1-9.5,1.1-22v-19.6l-2.9-2.9-2.9-2.9h-66.9C439.05,604.36,428.85,604.56,427.15,605.86Z" transform="translate(-0.05 0.04)"/>
    <path d="M852.65,607.26l-2.9,2.9v324.4l2.9,2.9,2.9,2.9H900c40.9,0,44.9-.2,52.7-2,30.5-7.3,52.9-35.2,58.7-73.1,1.2-7.7,1.4-14.6,1.1-26.4-.6-18.4-2.7-28.9-8.3-42.3-6.2-14.9-6.7-16.5-6.7-23.2a28.81,28.81,0,0,1,2.6-12.8c1.5-3.4,3.8-8.9,5.2-12.2,5.4-12.6,6.9-23.3,6.9-48,0-19.8-.3-23.4-2.2-30.2-7.8-28.4-24.1-49.4-46.4-59.8-11.9-5.6-15.9-6-64.1-6h-43.9Zm89.4,51.5c6.9,3,13.4,12.8,16.2,24.7,2,8.5,2,30.3,0,38.7-2.7,11.3-6.8,17.7-14,21.5-3.5,2-5.6,2.2-17.7,2.2-15.3,0-17.2-.7-21.3-7.6-1.9-3.2-2-5.5-2.3-33.6-.3-31.6.1-35.9,4-40.8s9-6.5,21.1-6.5C935.05,657.36,940,657.86,942.05,658.76Zm2,143.5c5.9,3.8,11,10.9,13.4,18.6,2.6,8.5,2.6,38.3.1,46.6s-7.4,14.9-13.3,17.9c-4.5,2.3-6,2.5-17.5,2.5-14.2,0-17.8-1.2-21.5-7.5-1.9-3.3-2-5.4-2.3-34.5-.3-33.9,0-36.5,5.6-41.7,4-3.8,7.6-4.6,19.8-4.7C938.85,799.36,939.55,799.46,944.05,802.26Z" transform="translate(-0.05 0.04)"/>
    <path d="M1112,606.66c-1.9,2.1-5.1,19.8-28.7,162.1-14.6,87.8-26.5,161.1-26.5,162.7,0,2,1,4,2.9,6l2.9,2.9h19.9c24.1,0,23.3.4,25.7-13.3,1.8-10.2,3.1-13.3,6.9-16.1,2.5-1.9,4.5-2.1,18.4-2.4,23.7-.6,26.3,1,29.5,17.7,2.7,14.6,1.9,14.1,26.1,14.1H1209l2.9-2.9c1.6-1.6,2.9-3.8,2.9-4.9s-9-56.4-19.9-122.8-22.9-138.6-26.5-160.3c-4.9-30.3-6.9-40-8.4-42l-1.9-2.6-22-.3C1114.25,604.36,1114.15,604.36,1112,606.66Zm27.4,186.2a10.47,10.47,0,0,1,3.2,4.2c1.9,4.5,8.3,48.1,7.6,51.1-2,8.3-14.6,11.8-24.4,6.7-5.5-2.8-5.6-6-1.6-32.9,2-13.1,4.1-24.6,4.6-25.7,1.3-2.3,5-4.9,7-4.9A7.72,7.72,0,0,1,1139.35,792.86Z" transform="translate(-0.05 0.04)"/>
    <path d="M1284.15,605.86a11.66,11.66,0,0,0-3.3,4.2c-.8,2.1-1.1,44.2-.9,164.1l.3,161.4,2.8,2.4c2.8,2.4,3.1,2.4,23.2,2.4s20.4,0,23.2-2.4l2.8-2.4.5-62.9c.5-68.1.3-65.7,6-70.8,1.9-1.7,3.6-2,13.4-2,9.5,0,11.8.4,16.4,2.4,6.2,2.8,12.4,9.3,14,14.9.8,2.7,1.2,16.8,1.2,46.3.1,59.2.8,65.7,8.7,73.6l3.4,3.3H1434l2.9-2.9c3.2-3.3,3.8-8.2,1.7-15.6-.7-2.6-1.3-22.8-1.8-57-.7-59.6-.5-58-8.5-71-5.3-8.7-6.9-13.5-6-18.3.4-2,3.5-9.6,7.1-16.7,9.5-19.5,12.5-33.3,12.5-58.5.1-15.9-1.7-28.4-5.5-39.6-9.6-28.2-29.2-48.3-53.2-54.4-7.1-1.8-11.2-2-52.3-2C1293.35,604.36,1285.85,604.56,1284.15,605.86Zm92.2,55c8.3,6.8,12.8,21.4,12.7,41.5,0,25.6-5.9,39.6-18,42.9-4.7,1.3-20.3,1.4-25.8.1-4.9-1.1-9.9-6.3-11.4-11.7-1.4-5.1-1.4-58.5,0-63.6a18.09,18.09,0,0,1,3.7-6.8c4.3-4.8,9-5.9,22.9-5.6C1372.35,657.86,1372.65,658,1376.35,660.86Z" transform="translate(-0.05 0.04)"/>
    <path d="M1042.15,1014.26a23.32,23.32,0,0,0-13,9.3l-2.9,4.3-.3,34-.3,34,2.4,4.5c6.4,12.2,24.5,14.6,34.7,4.7,6.2-6,6.4-7.3,6.8-38.3.4-31.3-.3-37.7-4.6-43.9C1060.15,1016.06,1050.15,1012.26,1042.15,1014.26Zm9.7,16,2.4,1.9v30.7c0,29.2-.1,30.7-1.9,32.1a10,10,0,0,1-10.2,0c-1.8-1.4-1.9-2.9-1.9-32.1v-30.7l2.4-1.9a6.52,6.52,0,0,1,9.2,0Z" transform="translate(-0.05 0.04)"/>
    <path d="M1217.15,1014.26c-9.3,2.4-13.9,9.3-15,22.7-1,12,1.3,16.4,16.1,30.9l11.5,11.2v7.7c0,6.3-.3,7.9-2,9.6-2.5,2.5-5.1,2.5-8,.2-1.8-1.5-2.3-3.2-2.9-9.7l-.6-8h-14l.1,7.5c.2,9.4,1.7,15,5.1,19.1,3.7,4.3,8,5.9,16,5.9,9.2-.1,14.3-2.4,17.6-8.2,3.1-5.4,3.8-8.7,3.9-18.1,0-10.6-2.5-15-15.6-27.1-5.7-5.4-11-11.1-11.6-12.7-1.6-3.8-.5-13.6,1.7-16.1a6.75,6.75,0,0,1,4.4-1.8c4,0,5.9,3.3,5.9,10.3,0,8.6.9,9.7,8,9.7,7.7,0,8.4-1.1,7.1-11.8a70.08,70.08,0,0,0-1.7-9.7c-1.2-3.4-5.4-8.4-8.3-9.9C1231.45,1014.16,1221.25,1013.16,1217.15,1014.26Z" transform="translate(-0.05 0.04)"/>
    <path d="M393.45,1016c-.4.4-.7,21.5-.7,47,0,41.2.2,46.3,1.6,46.8.9.3,8.7.6,17.4.6,12.4,0,16-.3,16.9-1.4.7-.9,1.1-3.8.9-7.3l-.3-5.8-9.4-.3c-5.2-.1-10.1-.8-10.8-1.4-1.8-1.5-1.8-17.1,0-18.6.7-.6,4.9-1.2,9.2-1.4l8-.3v-14l-8-.3c-4.3-.2-8.5-.8-9.2-1.4-1.8-1.4-1.8-24.9-.1-26.6.7-.7,4.5-1.2,9.9-1.2,10.4,0,11.1-.6,10.7-8.7l-.3-5.8-17.6-.3C402.05,1015.46,393.85,1015.66,393.45,1016Z" transform="translate(-0.05 0.04)"/>
    <path d="M473.45,1016c-1.4,1.4-.6,4.2,6.3,23.8,3.9,10.8,7,20.7,7,21.9s-3.1,11.7-7,23.2-7,21.7-7,22.6a2.62,2.62,0,0,0,1.6,2.3c2.7,1.1,9.1.6,10.1-.7.5-.6,2.4-5.5,4.3-10.7,3.5-10.2,5.3-13.1,7-11.4.6.6,2.6,5.5,4.6,11s4,10.4,4.6,11.1c1.1,1.3,7.4,1.8,10.2.7a2.48,2.48,0,0,0,1.6-2.2c0-.9-3.4-11.5-7.5-23.7l-7.6-22.2,7.7-21.7c4.2-11.9,7.3-22.3,7-23.2-.4-1.2-1.9-1.4-6.8-1.2l-6.2.3-3.6,9.5c-4.7,12.8-5.8,12.8-10.1.3l-3.4-9.8-6-.3C476.85,1015.36,473.85,1015.56,473.45,1016Z" transform="translate(-0.05 0.04)"/>
    <path d="M558.45,1016.06c-.4.3-.7,21.4-.7,46.9,0,41.2.2,46.3,1.6,46.8,2.7,1,11,.6,12.2-.6.8-.8,1.2-6.4,1.2-18.4,0-19.2.4-20.4,6.3-20.4,13.6,0,22.7-11.1,22.7-27.5,0-8.3-2.2-15.2-6.4-20.2-5.5-6.4-8.4-7.3-23.3-7.3C565,1015.36,558.75,1015.66,558.45,1016.06Zm25.9,16.4c1.4,1.6,2,4,2.2,9.8.3,6.6.1,8-1.8,10.3-1.6,2.2-3,2.8-5.9,2.8-5.5,0-6.1-1.1-6.1-12.1,0-7.5.4-10.1,1.6-11.3C576.65,1029.66,582.05,1030,584.35,1032.46Z" transform="translate(-0.05 0.04)"/>
    <path d="M642.45,1016c-.4.4-.7,21.5-.7,47,0,41.2.2,46.3,1.6,46.8.9.3,9.6.6,19.4.6,14.1,0,18-.3,18.9-1.4.7-.9,1.1-3.8.9-7.3l-.3-5.8-11-.3c-14.3-.4-14.5-.5-14.5-12.8s.1-12.4,13.4-12.4c12.3,0,12.8-.4,12.4-8.7l-.3-5.8-11-.3c-14.3-.4-14.5-.5-14.5-12.8s.1-12.4,13.3-12.4c5.6,0,10.8-.4,11.5-.9.9-.5,1.2-2.7,1-7.2l-.3-6.4-19.6-.3C652,1015.46,642.85,1015.66,642.45,1016Z" transform="translate(-0.05 0.04)"/>
    <path d="M726.35,1017c-.3.9-.6,21.7-.6,46.4,0,38.4.2,44.9,1.5,46,1.1.9,5.4,1.1,15.8.9,13.8-.4,14.5-.5,21.1-3.8,5.4-2.6,7.6-4.5,11.1-9.2,6.5-8.9,8.7-16,9.2-30.9.8-20.1-3.5-33.1-14.2-42.9-7.4-6.7-12.4-8.1-29.5-8.1C729.15,1015.36,726.85,1015.56,726.35,1017Zm29.7,14.8c5.1,2.1,9.4,7.8,11.8,15.7,1.8,6,2.1,8.8,1.7,18.4-.4,10.2-.7,11.9-3.6,17.8-4,8.1-8.1,10.9-16.1,11.4-3.1.2-6.3-.1-7.1-.6-1.3-.9-1.5-5.6-1.8-30.2-.3-33.8-.3-33.9,7.4-33.9A23,23,0,0,1,756.05,1031.76Z" transform="translate(-0.05 0.04)"/>
    <path d="M826.45,1016.06c-.4.3-.7,21.4-.7,46.9,0,41.2.2,46.3,1.6,46.8,2.7,1,11,.6,12.2-.6.9-.9,1.2-12.5,1.2-45.9,0-24.6-.3-45.4-.6-46.3-.5-1.2-2.1-1.6-6.8-1.6C829.85,1015.36,826.75,1015.66,826.45,1016.06Z" transform="translate(-0.05 0.04)"/>
    <path d="M883.45,1016.06c-1.2,1.1-.8,11.8.5,13.1.7.7,3.1,1.2,5.5,1.2,3.2,0,4.5.5,5.3,1.9.6,1.3,1,15.3,1,38.8,0,27.4.3,37.2,1.2,38.1.7.7,3.5,1.2,6.3,1.2s5.6-.5,6.3-1.2c.9-.9,1.2-10.8,1.2-38.4,0-41.6-.2-40.4,6.9-40.4,4.9,0,6.1-1.4,6.1-7.1,0-8.3,1.2-7.9-20.4-7.9C892.75,1015.36,883.75,1015.66,883.45,1016.06Z" transform="translate(-0.05 0.04)"/>
    <path d="M966.25,1016.56c-.3.7-.4,22-.3,47.3l.3,46h13v-94l-6.3-.3C968.55,1015.36,966.55,1015.66,966.25,1016.56Z" transform="translate(-0.05 0.04)"/>
    <path d="M1113.45,1016c-.4.4-.7,21.3-.7,46.4,0,34.1.3,45.9,1.2,46.8.7.7,3.5,1.2,6.3,1.2s5.6-.5,6.3-1.2c.9-.9,1.2-7.2,1.2-22.1,0-18.7.2-20.8,1.6-20.5,1.2.2,3.5,6.1,8.1,20.8,3.6,11.3,7,21.1,7.5,21.8.8.9,3.1,1.2,7.2,1l6.1-.3v-94l-5.8-.3c-3.5-.2-6.4.2-7.3.9-1.1.9-1.4,5.2-1.4,22,0,16.5-.3,20.9-1.3,20.9-.8,0-3.9-8.1-8.3-21.8l-6.9-21.7-6.6-.3C1117.05,1015.36,1113.85,1015.56,1113.45,1016Z" transform="translate(-0.05 0.04)"/>
  </g>
</svg>
